<svg xmlns="http://www.w3.org/2000/svg" width="741.263" height="741.264" viewBox="0 0 741.263 741.264"><path d="M337.14 23.165c-6.395 0-11.583-5.188-11.583-11.583C325.557 5.188 330.745 0 337.14 0h299.184c11.052 0 21.09 4.56 28.4 11.848l.048.048c7.312 7.31 11.848 17.42 11.848 28.425v660.63c0 11.06-4.56 21.17-11.848 28.48l-.796.73c-7.24 6.88-17.012 11.13-27.652 11.13H148.036c-11.027 0-21.138-4.56-28.45-11.85l-.023.03c-7.287-7.29-11.823-17.4-11.823-28.47V40.32c0-11.075 4.536-21.185 11.823-28.472l.796-.724C127.59 4.247 137.37 0 148.03 0h129.262c6.395 0 11.583 5.188 11.583 11.582 0 6.395-5.188 11.583-11.583 11.583h-129.26c-4.465 0-8.567 1.737-11.607 4.536l-.482.51c-3.09 3.12-5.043 7.41-5.043 12.12v660.62c0 4.69 1.955 8.98 5.043 12.09l-.024.03.02.03c3.06 3.09 7.36 5 12.09 5h488.29c4.46 0 8.56-1.73 11.58-4.53l.48-.53c3.11-3.11 5.06-7.4 5.06-12.09V40.33c0-4.68-1.93-9-5.02-12.087l-.05-.05c-3.07-3.063-7.36-4.993-12.07-4.993H337.14v-.02z"/><path d="M265.716 11.582C265.716 5.188 270.928 0 277.298 0c6.395 0 11.583 5.188 11.583 11.582V499.87c0 6.394-5.18 11.582-11.58 11.582-4.12 0-7.74-2.172-9.79-5.43l-33.3-44.374-33.85 45.12c-3.81 5.094-11.07 6.13-16.14 2.317-3.01-2.268-4.61-5.72-4.61-9.24h-.04V71.425c0-6.397 5.19-11.585 11.58-11.585 6.4 0 11.59 5.19 11.59 11.584v393.77l22.13-29.534.12-.168c.65-.87 1.4-1.643 2.32-2.317 5.09-3.812 12.33-2.773 16.17 2.317l22.27 29.68V11.58zm301.597 44.88c0-6.394 5.212-11.582 11.582-11.582 6.396 0 11.582 5.188 11.582 11.583v628.335c0 6.396-5.188 11.582-11.582 11.582s-11.582-5.188-11.582-11.582V56.463z"/><path d="M578.895 382.214c-6.395 0-11.582-5.188-11.582-11.583 0-6.39 5.212-11.58 11.582-11.58h41.286c6.4 0 11.59 5.19 11.59 11.59s-5.19 11.59-11.58 11.59H578.9zm0 114.88c-6.395 0-11.582-5.187-11.582-11.58 0-6.395 5.212-11.583 11.582-11.583h41.286c6.4 0 11.59 5.19 11.59 11.59 0 6.4-5.19 11.58-11.58 11.58H578.9zm0 114.906c-6.395 0-11.582-5.188-11.582-11.582 0-6.394 5.212-11.582 11.582-11.582h41.286c6.4 0 11.59 5.188 11.59 11.582 0 6.395-5.19 11.582-11.58 11.582H578.9zm0-459.573c-6.395 0-11.582-5.188-11.582-11.582 0-6.394 5.212-11.582 11.582-11.582h41.286c6.4 0 11.59 5.188 11.59 11.582 0 6.395-5.19 11.582-11.58 11.582H578.9zm0 114.88c-6.395 0-11.582-5.187-11.582-11.58 0-6.396 5.212-11.584 11.582-11.584h41.286c6.4 0 11.59 5.188 11.59 11.583 0 6.394-5.19 11.582-11.58 11.582H578.9zM76.225 84.912c-6.393 0-11.58-5.188-11.58-11.582 0-6.395 5.187-11.583 11.58-11.583h43.097c6.395 0 11.582 5.188 11.582 11.583 0 6.394-5.188 11.582-11.582 11.582H76.226zm0 594.578c-6.393 0-11.58-5.212-11.58-11.582 0-6.396 5.187-11.582 11.58-11.582h43.097c6.395 0 11.582 5.188 11.582 11.582 0 6.394-5.188 11.582-11.582 11.582H76.226zm0-98.714c-6.393 0-11.58-5.188-11.58-11.582 0-6.396 5.187-11.583 11.58-11.583h43.097c6.395 0 11.582 5.19 11.582 11.59 0 6.4-5.188 11.58-11.582 11.58H76.226zm0-98.714c-6.393 0-11.58-5.188-11.58-11.584 0-6.395 5.187-11.58 11.58-11.58h43.097c6.395 0 11.582 5.187 11.582 11.58 0 6.395-5.188 11.582-11.582 11.582H76.226v.002zm0-98.714c-6.393 0-11.58-5.188-11.58-11.582 0-6.394 5.187-11.583 11.58-11.583h43.097c6.395 0 11.582 5.188 11.582 11.583 0 6.396-5.188 11.582-11.582 11.582H76.226zm0-100.983c-6.393 0-11.58-5.188-11.58-11.582 0-6.394 5.187-11.582 11.58-11.582h43.097c6.395 0 11.582 5.19 11.582 11.59 0 6.4-5.188 11.59-11.582 11.59H76.226zm0-98.74c-6.393 0-11.58-5.187-11.58-11.58 0-6.396 5.187-11.584 11.58-11.584h43.097c6.395 0 11.582 5.19 11.582 11.59 0 6.4-5.188 11.58-11.582 11.58H76.226z"/></svg>