<svg id="Capa_1" xmlns="http://www.w3.org/2000/svg" viewBox="0 0 52 52"><style>.st0{fill:#4153A0;} .st1{fill:#FFFFFF;}</style><path id="XMLID_16_" class="st0" d="M-.2-.2h52v52h-52z"/><g id="XMLID_17_"><path id="XMLID_15_" class="st1" d="M23.8 5.3c-.4 0-.7-.3-.7-.7 0-.4.3-.7.7-.7h17.7c.7 0 1.2.3 1.7.7.4.4.7 1 .7 1.7v39c0 .7-.3 1.3-.7 1.7-.4.4-1 .7-1.6.7H12.7c-.7 0-1.2-.3-1.7-.7-.4-.4-.7-1-.7-1.7v-39c0-.7.3-1.3.7-1.7.4-.4 1-.7 1.6-.7h7.6c.4 0 .7.3.7.7 0 .4-.3.7-.7.7h-7.6c-.3 0-.5.1-.7.3-.2.2-.3.4-.3.7v39c0 .3.1.5.3.7.2.2.4.3.7.3h28.8c.3 0 .5-.1.7-.3.2-.2.3-.4.3-.7v-39c0-.3-.1-.5-.3-.7-.2-.2-.4-.3-.7-.3H23.8z"/><path class="st1" d="M19.6 4.6c0-.4.3-.7.7-.7.4 0 .7.3.7.7v28.8c0 .4-.3.7-.7.7-.2 0-.5-.1-.6-.3l-2-2.6-2 2.7c-.2.3-.7.4-1 .1-.2-.1-.3-.3-.3-.5V8.2c0-.4.3-.7.7-.7.4 0 .7.3.7.7v23.3l1.3-1.7c0-.1.1-.1.1-.1.3-.2.7-.2 1 .1l1.3 1.8.1-27zm17.8 2.7c0-.4.3-.7.7-.7.4 0 .7.3.7.7v37.1c0 .4-.3.7-.7.7s-.7-.3-.7-.7V7.3z"/><path class="st1" d="M38.1 26.5c-.4 0-.7-.3-.7-.7 0-.4.3-.7.7-.7h2.4c.4 0 .7.3.7.7 0 .4-.3.7-.7.7h-2.4zm0 6.8c-.4 0-.7-.3-.7-.7 0-.4.3-.7.7-.7h2.4c.4 0 .7.3.7.7 0 .4-.3.7-.7.7h-2.4zm0 6.8c-.4 0-.7-.3-.7-.7s.3-.7.7-.7h2.4c.4 0 .7.3.7.7 0 .4-.3.7-.7.7h-2.4zm0-27.2c-.4 0-.7-.3-.7-.7 0-.4.3-.7.7-.7h2.4c.4 0 .7.3.7.7 0 .4-.3.7-.7.7h-2.4zm0 6.8c-.4 0-.7-.3-.7-.7 0-.4.3-.7.7-.7h2.4c.4 0 .7.3.7.7 0 .4-.3.7-.7.7h-2.4zM8.4 9c-.3 0-.7-.4-.7-.7 0-.4.3-.7.7-.7H11c.4 0 .7.3.7.7 0 .3-.3.7-.7.7H8.4zm0 35.1c-.4 0-.7-.3-.7-.7 0-.4.3-.7.7-.7H11c.4 0 .7.3.7.7s-.3.7-.7.7H8.4zm0-5.9c-.4 0-.7-.3-.7-.7 0-.4.3-.7.7-.7H11c.4 0 .7.3.7.7s-.3.7-.7.7H8.4zm0-5.8c-.4 0-.7-.3-.7-.7 0-.4.3-.7.7-.7H11c.4 0 .7.3.7.7 0 .4-.3.7-.7.7H8.4zm0-5.8c-.4 0-.7-.3-.7-.7s.3-.7.7-.7H11c.4 0 .7.3.7.7 0 .4-.3.7-.7.7H8.4zm0-6c-.4 0-.7-.3-.7-.7s.3-.7.7-.7H11c.4 0 .7.3.7.7 0 .4-.3.7-.7.7H8.4zm0-5.8c-.4 0-.7-.3-.7-.7 0-.4.3-.7.7-.7H11c.4 0 .7.3.7.7s-.3.7-.7.7H8.4z"/></g></svg>