<svg viewBox="0 0 512 512" xmlns="http://www.w3.org/2000/svg"><rect height="512" rx="64" ry="64" width="512" fill="#4ea23b"/><path d="M256.145 56c-8.73 0-17.465.416-23.696 1.285C157.57 67.73 97.79 127.11 86.47 202.298c-5.932 39.386 2.412 81.064 23 114.81 13.312 21.823 32.447 41.642 53.282 55.185 25.446 16.54 52.747 25.48 84.608 27.712l8.354.59v27.175c0 14.945.248 27.425.562 27.74 1.127 1.126 3.008.497 11.648-3.83 34.213-17.135 65.304-39.663 91.088-66 38.354-39.177 60.046-82.337 67.34-133.955 1.563-11.067 1.325-38.182-.43-49.132-12.235-76.388-70.963-134.83-146.084-145.308-6.23-.87-14.967-1.285-23.695-1.285zm-81.29 121.64h55.88c5.563 0 10.04 4.477 10.04 10.04v64.982c0 .763.023 1.294-.106 2.035-.55 10.492-1.9 14.407-5.01 20.884-7.15 14.87-21.79 25.77-37.92 28.25-2.92.45-3.87.23-5.36-1.26-1.62-1.62-1.82-2.79-1.82-11.19 0-10.69.09-10.81 8.11-13.41 4.2-1.36 9.16-4.46 11.43-7.15 2.51-2.96 5.29-10.05 5.3-13.52v-3.64c-13.29.12-27.14-.11-40.57 0-5.57 0-10.04-4.5-10.04-10.07v-55.91c0-5.56 4.47-10.04 10.04-10.04zm106.43 0h55.88c5.563 0 10.04 4.477 10.04 10.04v64.982c0 .763.024 1.294-.106 2.035-.55 10.492-1.9 14.407-5.01 20.884-7.15 14.87-21.79 25.77-37.92 28.25-2.92.45-3.87.23-5.36-1.26-1.62-1.62-1.82-2.79-1.82-11.19 0-10.69.09-10.81 8.11-13.41 4.2-1.36 9.16-4.46 11.43-7.15 2.5-2.96 5.29-10.05 5.3-13.52v-3.64c-13.29.12-27.14-.11-40.57 0-5.56 0-10.04-4.5-10.04-10.07v-55.91c0-5.56 4.48-10.04 10.04-10.04z" fill="#fff"/></svg>