<svg viewBox="0 0 512 512" xmlns="http://www.w3.org/2000/svg"><rect height="512" rx="64" ry="64" width="512" fill="#7b519d"/><g fill="#fff" fill-rule="evenodd"><path d="M421.915 345.457c-12.198-9.82-25.233-18.634-38.064-27.638-25.59-17.98-48.99-19.37-68.09 9.54-10.72 16.23-25.73 16.94-41.43 9.82-43.27-19.62-76.68-49.85-96.25-93.83-8.66-19.46-8.54-36.91 11.72-50.67 10.73-7.28 21.53-15.89 20.67-31.8-1.13-20.74-51.47-90.04-71.35-97.35-8.22-3.03-16.42-2.83-24.79-.02-46.63 15.69-65.94 54.03-47.45 99.43 55.17 135.44 152.26 229.73 285.91 287.28 7.62 3.28 16.09 4.59 20.37 5.76 30.43.3 66.08-29.01 76.37-58.11 9.91-27.99-11.03-39.1-27.6-52.44zM272.06 77.44c97.707 15.024 142.768 61.484 155.21 159.894 1.154 9.09-2.232 22.768 10.737 23.02 13.554.26 10.288-13.217 10.402-22.316 1.14-92.684-79.67-178.606-173.53-181.774-7.08 1.02-21.74-4.883-22.65 10.988-.61 10.7 11.72 8.942 19.82 10.187z"/><path d="M291.172 104.422c-9.398-1.132-21.805-5.56-24 7.48-2.294 13.687 11.534 12.297 20.42 14.286 60.345 13.487 81.357 35.45 91.293 95.31 1.45 8.728-1.432 22.31 13.4 20.06 10.99-1.674 7.02-13.317 7.94-20.118.486-57.47-48.76-109.778-109.053-117.018z"/><path d="M296.713 151.416c-6.273.155-12.43.834-14.736 7.538-3.463 10.02 3.822 12.41 11.237 13.6 24.755 3.974 37.783 18.57 40.256 43.257.668 6.71 4.92 12.13 11.392 11.37 8.97-1.07 9.78-9.05 9.505-16.63.443-27.73-30.904-59.79-57.654-59.12z"/></g></svg>