<svg viewBox="0 0 512 512" xmlns="http://www.w3.org/2000/svg"><rect height="512" rx="64" ry="64" width="512" fill="#00abf1"/><path d="M456 131.94c-14.717 6.532-30.527 10.94-47.128 12.925 16.936-10.156 29.95-26.243 36.08-45.397-15.855 9.405-33.423 16.226-52.12 19.908-14.96-15.952-36.296-25.914-59.893-25.914-45.33 0-82.08 36.747-82.08 82.067 0 6.43.73 12.68 2.13 18.7-68.21-3.43-128.67-36.1-169.15-85.76-7.07 12.12-11.11 26.21-11.11 41.26 0 28.47 14.48 53.58 36.5 68.3-13.45-.43-26.1-4.12-37.17-10.26-.01.33-.01.68-.01 1.03 0 39.76 28.29 72.92 65.82 80.47-6.89 1.86-14.14 2.87-21.62 2.87-5.29 0-10.43-.53-15.44-1.48 10.44 32.59 40.75 56.32 76.65 56.99-28.08 22.02-63.47 35.14-101.92 35.14-6.62 0-13.15-.39-19.58-1.16 36.33 23.29 79.46 36.88 125.8 36.88 150.94 0 233.49-125.05 233.49-233.49 0-3.57-.08-7.11-.23-10.63 16.02-11.57 29.94-26.02 40.94-42.48z" fill="#fff"/></svg>